<?xml version="1.0" standalone="no"?>
<!DOCTYPE svg PUBLIC "-//W3C//DTD SVG 20010904//EN"
 "http://www.w3.org/TR/2001/REC-SVG-20010904/DTD/svg10.dtd">
<svg version="1.0" xmlns="http://www.w3.org/2000/svg"
 width="568.000000pt" height="436.000000pt" viewBox="0 0 1568.000000 436.000000"
 preserveAspectRatio="xMidYMid meet">

<g transform="translate(0.000000,436.000000) scale(0.100000,-0.100000)"
fill="#000000" stroke="none">
<path d="M8937 4143 c-4 -3 -7 -163 -7 -355 l0 -348 -532 -2 -533 -3 -3 -687
-2 -688 285 0 285 0 0 410 0 410 248 -2 247 -3 3 -852 2 -853 -240 0 -240 0 0
-280 0 -280 790 0 790 0 0 280 0 280 -240 0 -240 0 2 853 3 852 248 3 247 2 0
-410 0 -410 285 0 285 0 -2 688 -3 687 -532 3 -533 2 -2 353 -3 352 -301 3
c-165 1 -303 -1 -307 -5z"/>
<path d="M13985 4138 c-3 -7 -4 -803 -3 -1768 l3 -1755 608 -3 607 -2 0 280 0
280 -295 0 -295 0 -2 1488 -3 1487 -308 3 c-241 2 -309 0 -312 -10z"/>
<path d="M7355 3469 c-497 -46 -807 -262 -934 -649 -50 -151 -51 -177 -51
-1227 l0 -983 605 0 605 0 0 280 0 280 -295 0 -295 0 0 638 c0 700 2 720 60
839 71 143 210 217 453 238 l77 7 0 294 0 294 -67 -1 c-38 -1 -108 -5 -158
-10z"/>
<path d="M287 3433 c-4 -3 -7 -640 -7 -1415 l0 -1408 573 2 572 3 3 277 2 278
-262 2 -263 3 -3 293 -2 292 262 0 263 -1 305 -412 c167 -227 359 -485 425
-574 l120 -162 255 2 255 2 3 212 2 211 -87 104 c-134 157 -225 264 -505 592
-142 166 -258 303 -258 306 0 3 37 48 83 101 258 299 574 666 655 761 l92 110
-2 211 -3 212 -240 2 -240 2 -175 -222 c-96 -122 -293 -372 -439 -554 l-264
-333 -254 0 -253 0 2 273 3 272 263 3 262 2 -2 278 -3 277 -566 3 c-311 1
-569 -1 -572 -5z"/>
<path d="M4227 3429 c-398 -33 -696 -173 -859 -403 -172 -244 -239 -526 -239
-1006 1 -485 70 -768 247 -1017 52 -72 156 -166 241 -215 120 -70 256 -117
438 -150 102 -19 162 -21 848 -25 l737 -4 0 1415 0 1416 -657 -1 c-362 -1
-702 -5 -756 -10z m791 -1408 l2 -853 -387 5 c-422 6 -467 11 -567 65 -210
114 -310 407 -293 867 12 323 74 514 206 638 53 50 122 88 190 107 70 19 257
27 561 26 l285 -1 3 -854z"/>
<path d="M12003 3429 c-122 -9 -243 -31 -359 -65 -414 -120 -640 -410 -721
-928 -26 -162 -26 -663 0 -826 52 -329 149 -544 318 -706 153 -145 329 -223
614 -271 85 -14 201 -17 753 -20 l652 -4 0 545 0 546 -285 0 -285 0 0 -265 0
-265 -242 0 c-483 0 -600 27 -726 165 -79 86 -133 218 -156 378 l-5 37 540 0
539 0 -2 283 -3 282 -537 3 -537 2 5 33 c17 91 48 196 76 250 40 81 128 172
202 209 100 50 160 58 519 65 l327 6 0 -261 0 -262 285 0 285 0 -2 538 -3 537
-575 1 c-316 1 -621 -2 -677 -7z"/>
</g>
</svg>
